# xmcd
#
# Track frame offsets: 
#        150
#        16905
#        29714
#        47166
#        63452
#        79286
#        101151
#        117010
#        132999
#        146450
#        162609
#
# Disc length: 2342 seconds
#
# Revision: 0
# Processed by: cddbd v1.5.2PL0 Copyright (c) Steve Scherf et al.
# Submitted via: ExactAudioCopy v0.95b4
#
DISCID=9c09240b
DTITLE=Jackson Delta - Acoustic Blues
DYEAR=1900
DGENRE=Blues
TTITLE0=Statebourough Blues
TTITLE1=Ineed You By My Side
TTITLE2=Back Up From Zero
TTITLE3=Path To The Liquor Store
TTITLE4=Sugar Bee
TTITLE5=Baby Please Don't Go
TTITLE6=I Ain't Got No Baby Now
TTITLE7=Bad News Blues
TTITLE8=Sink or Swim
TTITLE9=Talk To Your Mama
TTITLE10=CC Rider
EXTD=
EXTT0=
EXTT1=
EXTT2=
EXTT3=
EXTT4=
EXTT5=
EXTT6=
EXTT7=
EXTT8=
EXTT9=
EXTT10=
PLAYORDER=
